<svg xmlns="http://www.w3.org/2000/svg" xmlns:xlink="http://www.w3.org/1999/xlink" width="500" zoomAndPan="magnify" viewBox="0 0 375 374.999991" height="500" preserveAspectRatio="xMidYMid meet" version="1.0"><defs><clipPath id="bdd9d1c40c"><path d="M 42.480469 20 L 332.730469 20 L 332.730469 355 L 42.480469 355 Z M 42.480469 20 " clip-rule="nonzero"/></clipPath><clipPath id="12d2f7f152"><path d="M 194.09375 22.523438 L 326.242188 99.351562 C 330.257812 101.6875 332.730469 105.980469 332.730469 110.625 L 332.730469 264.375 C 332.730469 269.019531 330.257812 273.3125 326.242188 275.648438 L 194.09375 352.476562 C 190.082031 354.808594 185.128906 354.808594 181.117188 352.476562 L 48.96875 275.648438 C 44.953125 273.3125 42.480469 269.019531 42.480469 264.375 L 42.480469 110.625 C 42.480469 105.980469 44.953125 101.6875 48.96875 99.351562 L 181.117188 22.523438 C 185.128906 20.191406 190.082031 20.191406 194.09375 22.523438 " clip-rule="nonzero"/></clipPath><clipPath id="c21738dd2f"><path d="M 69.542969 52 L 305.457031 52 L 305.457031 323 L 69.542969 323 Z M 69.542969 52 " clip-rule="nonzero"/></clipPath><clipPath id="1029dc9c82"><path d="M 193.984375 54.011719 L 298.976562 115.097656 C 302.988281 117.433594 305.457031 121.726562 305.457031 126.371094 L 305.457031 248.628906 C 305.457031 253.273438 302.988281 257.566406 298.976562 259.902344 L 193.984375 320.988281 C 189.976562 323.320312 185.023438 323.320312 181.015625 320.988281 L 76.023438 259.902344 C 72.011719 257.566406 69.542969 253.273438 69.542969 248.628906 L 69.542969 126.371094 C 69.542969 121.726562 72.011719 117.433594 76.023438 115.097656 L 181.015625 54.011719 C 185.023438 51.679688 189.976562 51.679688 193.984375 54.011719 " clip-rule="nonzero"/></clipPath><clipPath id="7e177ae0a9"><path d="M 69.542969 52 L 305.789062 52 L 305.789062 323 L 69.542969 323 Z M 69.542969 52 " clip-rule="nonzero"/></clipPath><clipPath id="d7fbd3c935"><path d="M 194.15625 54.011719 L 299.296875 115.09375 C 303.316406 117.425781 305.789062 121.71875 305.789062 126.363281 L 305.789062 248.613281 C 305.789062 253.257812 303.316406 257.550781 299.296875 259.886719 L 194.15625 320.96875 C 190.144531 323.300781 185.1875 323.300781 181.175781 320.96875 L 76.035156 259.886719 C 72.015625 257.550781 69.542969 253.257812 69.542969 248.613281 L 69.542969 126.363281 C 69.542969 121.71875 72.015625 117.425781 76.035156 115.09375 L 181.175781 54.011719 C 185.1875 51.679688 190.144531 51.679688 194.15625 54.011719 " clip-rule="nonzero"/></clipPath><clipPath id="b9cf32ec54"><path d="M 103.507812 152 L 181 152 L 181 280 L 103.507812 280 Z M 103.507812 152 " clip-rule="nonzero"/></clipPath><clipPath id="2cd96fe28a"><path d="M 194 152.199219 L 271.507812 152.199219 L 271.507812 279.417969 L 194 279.417969 Z M 194 152.199219 " clip-rule="nonzero"/></clipPath></defs><g clip-path="url(#bdd9d1c40c)"><g clip-path="url(#12d2f7f152)"><path stroke-linecap="butt" transform="matrix(0.750545, 0, 0, 0.75, 42.48047, 18.749999)" fill="none" stroke-linejoin="miter" d="M 202.004137 5.031252 L 378.07401 107.468759 C 383.424286 110.583342 386.718765 116.307301 386.718765 122.50001 L 386.718765 327.500023 C 386.718765 333.692732 383.424286 339.416691 378.07401 342.531274 L 202.004137 444.968781 C 196.659066 448.078156 190.059698 448.078156 184.714627 444.968781 L 8.644754 342.531274 C 3.294478 339.416691 -0.00000127967 333.692732 -0.00000127967 327.500023 L -0.00000127967 122.50001 C -0.00000127967 116.307301 3.294478 110.583342 8.644754 107.468759 L 184.714627 5.031252 C 190.059698 1.921877 196.659066 1.921877 202.004137 5.031252 " stroke="#ffffff" stroke-width="24" stroke-opacity="1" stroke-miterlimit="4"/></g></g><g clip-path="url(#c21738dd2f)"><g clip-path="url(#1029dc9c82)"><path fill="#ffffff" d="M 69.542969 50.238281 L 305.457031 50.238281 L 305.457031 324.761719 L 69.542969 324.761719 Z M 69.542969 50.238281 " fill-opacity="1" fill-rule="nonzero"/></g></g><g clip-path="url(#7e177ae0a9)"><g clip-path="url(#d7fbd3c935)"><path stroke-linecap="butt" transform="matrix(0.75108, 0, 0, 0.749968, 69.542189, 50.239034)" fill="none" stroke-linejoin="miter" d="M 165.913093 5.030462 L 305.898951 86.476655 C 311.250617 89.586163 314.54275 95.310367 314.54275 101.50334 L 314.54275 264.510314 C 314.54275 270.703288 311.250617 276.427491 305.898951 279.542207 L 165.913093 360.9884 C 160.571828 364.097909 153.97196 364.097909 148.630695 360.9884 L 8.644838 279.542207 C 3.293171 276.427491 0.00103853 270.703288 0.00103853 264.510314 L 0.00103853 101.50334 C 0.00103853 95.310367 3.293171 89.586163 8.644838 86.476655 L 148.630695 5.030462 C 153.97196 1.920954 160.571828 1.920954 165.913093 5.030462 " stroke="#ffffff" stroke-width="24" stroke-opacity="1" stroke-miterlimit="4"/></g></g><g clip-path="url(#b9cf32ec54)"><path fill="#161616" d="M 179.246094 194.300781 L 108.230469 152.816406 C 106.136719 151.597656 103.507812 153.105469 103.507812 155.519531 L 103.507812 236.984375 C 103.507812 238.121094 104.125 239.171875 105.125 239.722656 L 176.144531 279.023438 C 178.234375 280.175781 180.800781 278.667969 180.800781 276.285156 L 180.800781 197.003906 C 180.800781 195.886719 180.207031 194.859375 179.246094 194.300781 " fill-opacity="1" fill-rule="nonzero"/></g><g clip-path="url(#2cd96fe28a)"><path fill="#161616" d="M 266.847656 152.816406 L 195.832031 194.300781 C 194.871094 194.859375 194.277344 195.886719 194.277344 197.003906 L 194.277344 276.285156 C 194.277344 278.667969 196.84375 280.175781 198.933594 279.023438 L 269.949219 239.722656 C 270.953125 239.171875 271.566406 238.121094 271.566406 236.984375 L 271.566406 155.519531 C 271.566406 153.105469 268.9375 151.597656 266.847656 152.816406 " fill-opacity="1" fill-rule="nonzero"/></g><path fill="#161616" d="M 259.125 135.117188 L 186.730469 94.769531 C 185.757812 94.226562 184.570312 94.246094 183.609375 94.804688 L 115.59375 134.71875 C 113.542969 135.921875 113.53125 138.878906 115.570312 140.105469 L 183.605469 180.875 C 184.566406 181.453125 185.761719 181.46875 186.746094 180.921875 L 259.125 140.589844 C 261.273438 139.394531 261.273438 136.308594 259.125 135.117188 " fill-opacity="1" fill-rule="nonzero"/></svg>